<?xml version="1.0" encoding="UTF-8"?>
<svg width="20px" height="20px" viewBox="0 0 20 20" version="1.1" xmlns="http://www.w3.org/2000/svg" xmlns:xlink="http://www.w3.org/1999/xlink">
    <title>icon_c/1</title>
    <defs>
        <path d="M9.99999324,20 C4.47841424,20 0,15.6808326 0,10.3555941 L0,9.6444059 C0,4.31916739 4.47841424,0 9.99999324,0 L9.99999324,0 C15.5215722,0 19.9999865,4.31916739 19.9999865,9.6444059 L19.9999865,10.3555941 C20.0089793,15.6808326 15.530565,20 9.99999324,20 L9.99999324,20 Z" id="path-1"></path>
        <filter x="-2.5%" y="-2.5%" width="105.0%" height="110.0%" filterUnits="objectBoundingBox" id="filter-2">
            <feOffset dx="0" dy="1" in="SourceAlpha" result="shadowOffsetOuter1"></feOffset>
            <feColorMatrix values="0 0 0 0 0   0 0 0 0 0   0 0 0 0 0  0 0 0 0.2 0" type="matrix" in="shadowOffsetOuter1"></feColorMatrix>
        </filter>
        <linearGradient x1="2.32794436%" y1="2.32794436%" x2="95.2628031%" y2="95.2628031%" id="linearGradient-3">
            <stop stop-color="#DA9210" offset="0%"></stop>
            <stop stop-color="#FFD15C" offset="50%"></stop>
            <stop stop-color="#DA9210" offset="100%"></stop>
        </linearGradient>
        <path d="M2.33241585,3.77918048 L6.81411128,0.000472914811 L11.2844568,3.76061858 L13.5233537,1.37216232 C13.1901852,2.82613891 12.8567803,4.27976081 12.5236118,5.7337374 C10.6837367,5.54362564 8.71652934,5.34098164 6.81292899,5.34098164 C4.91027448,5.34098164 3.04533492,5.48037329 1.10437431,5.7337374 L0.099430339,1.39722681 L2.33241585,3.77918048 Z M5.85622233,3.68826261 C5.85622233,4.18825179 6.28385555,4.59306687 6.81174671,4.59306687 C7.33916495,4.59306687 7.7669164,4.18825179 7.7669164,3.68826261 C7.7669164,3.18862811 7.33916495,2.78381303 6.81174671,2.78381303 C6.28385555,2.78381303 5.85622233,3.18862811 5.85622233,3.68826261 Z" id="path-4"></path>
        <path d="M5.26401476,0.10203137 C5.22452637,0.1029772 5.18491976,0.103331886 5.14531314,0.10392303 C4.19108928,0.118701618 3.24360446,0.168830587 2.28819831,0.250053706 C2.25071981,0.253127652 2.21371423,0.256556285 2.17659042,0.259630231 C1.48589834,0.320163327 0.791304707,0.397130212 0.0860704956,0.489230372 L0.121657335,0.642809457 L0.123430766,0.650494322 L0.483200708,2.07172156 C0.891680876,2.01981916 1.21432701,1.54666789 1.61665928,1.50564253 C1.69859177,1.49724829 1.6706898,1.21941084 1.7522676,1.21172597 C3.09286286,1.0816744 4.41205873,1.21172597 5.7498165,1.21172597 C7.08816541,1.21172597 8.40700659,1.0816744 9.74760185,1.21172597 C9.82882497,1.21941084 9.78744492,1.49724829 9.86937742,1.50564253 C10.2719461,1.54666789 10.6075974,2.01981916 11.0154865,2.07172156 L11.3764387,0.650494322 L11.3783303,0.642809457 L11.413799,0.489230372 C10.708683,0.397130212 10.0136164,0.320163327 9.32304258,0.259630231 C9.28591877,0.256556285 9.24914964,0.253127652 9.21178937,0.250053706 C8.25591031,0.168830587 7.30878017,0.118701618 6.35455631,0.10392303 C6.3149497,0.103331886 6.27510662,0.1029772 6.23561824,0.10203137 C6.0739996,0.100139711 5.91202628,0.0993121103 5.7498165,0.0993121103 C5.58784318,0.0993121103 5.4256334,0.100139711 5.26401476,0.10203137 Z" id="path-6"></path>
        <path d="M0.11669173,1.13499555 C0.11669173,1.70509435 0.584522706,2.17020607 1.15899597,2.17020607 C1.73346924,2.17020607 2.20094553,1.70509435 2.20094553,1.13499555 C2.20094553,0.564187369 1.73346924,0.0997850251 1.15899597,0.0997850251 C0.584522706,0.0997850251 0.11669173,0.564187369 0.11669173,1.13499555 Z" id="path-8"></path>
        <path d="M0.0707007642,0.898301683 C0.0707007642,1.36400454 0.453525304,1.74410982 0.922420338,1.74410982 C1.39155183,1.74410982 1.77402168,1.36400454 1.77402168,0.898301683 C1.77402168,0.432125908 1.39155183,0.0526117727 0.922420338,0.0526117727 C0.453525304,0.0526117727 0.0707007642,0.432125908 0.0707007642,0.898301683 Z" id="path-10"></path>
        <path d="M0.0709372216,0.898301683 C0.0709372216,1.36400454 0.453407075,1.74410982 0.922538567,1.74410982 C1.3914336,1.74410982 1.77413991,1.36400454 1.77413991,0.898301683 C1.77413991,0.432125908 1.3914336,0.0526117727 0.922538567,0.0526117727 C0.453407075,0.0526117727 0.0709372216,0.432125908 0.0709372216,0.898301683 Z" id="path-12"></path>
    </defs>
    <g id="icon_c/1" stroke="none" stroke-width="1" fill="none" fill-rule="evenodd">
        <g id="ic_gift">
            <g id="Shape">
                <use fill="black" fill-opacity="1" filter="url(#filter-2)" xlink:href="#path-1"></use>
                <use fill="#FFFFFF" fill-rule="evenodd" xlink:href="#path-1"></use>
            </g>
            <path d="M10.0952317,18.7619048 C5.30490252,18.7619048 1.42857143,15.021802 1.42857143,10.4173898 L1.42857143,9.77308639 C1.42857143,5.16081682 5.31306322,1.42857143 10.0952317,1.42857143 C14.8855608,1.42857143 18.7618919,5.16867418 18.7618919,9.77308639 L18.7618919,10.4173898 C18.7700526,15.0296594 14.8855608,18.7619048 10.0952317,18.7619048 Z" id="Shape" fill="url(#linearGradient-3)"></path>
            <g id="Page-1" transform="translate(2.495117, 5.000000)">
                <g id="Group-3" transform="translate(0.827601, 1.737962)">
                    <mask id="mask-5" fill="white">
                        <use xlink:href="#path-4"></use>
                    </mask>
                    <g id="Clip-2"></g>
                    <polygon id="Fill-1" fill="#FFFFFF" mask="url(#mask-5)" points="-4.68410297 10.5176254 18.3070052 10.5176254 18.3070052 -4.78317863 -4.68410297 -4.78317863"></polygon>
                </g>
                <g id="Group-6" transform="translate(1.891659, 7.176482)">
                    <mask id="mask-7" fill="white">
                        <use xlink:href="#path-6"></use>
                    </mask>
                    <g id="Clip-5"></g>
                    <polygon id="Fill-4" fill="#FFFFFF" mask="url(#mask-7)" points="-4.69758104 6.85525487 16.1974505 6.85525487 16.1974505 -4.68445766 -4.69758104 -4.68445766"></polygon>
                </g>
                <g id="Group-9" transform="translate(6.502579, 0.082760)">
                    <mask id="mask-9" fill="white">
                        <use xlink:href="#path-8"></use>
                    </mask>
                    <g id="Clip-8"></g>
                    <polygon id="Fill-7" fill="#FFFFFF" mask="url(#mask-9)" points="-4.66695981 6.95373938 6.98483353 6.95373938 6.98483353 -4.6842212 -4.66695981 -4.6842212"></polygon>
                </g>
                <g id="Group-12" transform="translate(13.359843, 1.974419)">
                    <mask id="mask-11" fill="white">
                        <use xlink:href="#path-10"></use>
                    </mask>
                    <g id="Clip-11"></g>
                    <polygon id="Fill-10" fill="#FFFFFF" mask="url(#mask-11)" points="-3.83758546 5.6526325 5.68230791 5.6526325 5.68230791 -3.85602914 -3.83758546 -3.85602914"></polygon>
                </g>
                <g id="Group-15" transform="translate(0.000000, 1.974419)">
                    <mask id="mask-13" fill="white">
                        <use xlink:href="#path-12"></use>
                    </mask>
                    <g id="Clip-14"></g>
                    <polygon id="Fill-13" fill="#FFFFFF" mask="url(#mask-13)" points="-3.83758546 5.6526325 5.68230791 5.6526325 5.68230791 -3.85602914 -3.83758546 -3.85602914"></polygon>
                </g>
            </g>
        </g>
    </g>
</svg>