<?xml version="1.0" encoding="UTF-8"?>
<svg width="20px" height="21px" viewBox="0 0 20 21" version="1.1" xmlns="http://www.w3.org/2000/svg" xmlns:xlink="http://www.w3.org/1999/xlink">
    <!-- Generator: Sketch 63.1 (92452) - https://sketch.com -->
    <title>ic_gift</title>
    <desc>Created with Sketch.</desc>
    <defs>
        <path d="M9.99999324,20 C4.47841424,20 0,15.6808326 0,10.3555941 L0,9.6444059 C0,4.31916739 4.47841424,0 9.99999324,0 L9.99999324,0 C15.5215722,0 19.9999865,4.31916739 19.9999865,9.6444059 L19.9999865,10.3555941 C20.0089793,15.6808326 15.530565,20 9.99999324,20 L9.99999324,20 Z" id="path-1"></path>
        <filter x="-2.5%" y="-2.5%" width="105.0%" height="110.0%" filterUnits="objectBoundingBox" id="filter-2">
            <feOffset dx="0" dy="1" in="SourceAlpha" result="shadowOffsetOuter1"></feOffset>
            <feColorMatrix values="0 0 0 0 0   0 0 0 0 0   0 0 0 0 0  0 0 0 0.2 0" type="matrix" in="shadowOffsetOuter1"></feColorMatrix>
        </filter>
        <polygon id="path-3" points="0 11.4284762 0 0 11.4285238 0 11.4285238 11.4284762 4.22942105e-16 11.4284762"></polygon>
    </defs>
    <g id="Symbols" stroke="none" stroke-width="1" fill="none" fill-rule="evenodd">
        <g id="ic_gift">
            <g>
                <g id="Shape">
                    <use fill="black" fill-opacity="1" filter="url(#filter-2)" xlink:href="#path-1"></use>
                    <use fill="#FFFFFF" fill-rule="evenodd" xlink:href="#path-1"></use>
                </g>
                <path d="M10.0952317,18.7619048 L10.0952317,18.7619048 C5.30490252,18.7619048 1.42857143,15.021802 1.42857143,10.4173898 L1.42857143,9.77308639 C1.42857143,5.16081682 5.31306322,1.42857143 10.0952317,1.42857143 L10.0952317,1.42857143 C14.8855608,1.42857143 18.7618919,5.16867418 18.7618919,9.77308639 L18.7618919,10.4173898 C18.7700526,15.0296594 14.8855608,18.7619048 10.0952317,18.7619048 Z" id="Shape" fill="#FFD200"></path>
                <g id="gift" transform="translate(4.285714, 4.285714)">
                    <mask id="mask-4" fill="white">
                        <use xlink:href="#path-3"></use>
                    </mask>
                    <g id="Clip-2"></g>
                    <path d="M3.3942381,0.788 C3.8242381,0.788 4.15757143,1.19038095 4.50947619,1.72419048 L3.53661905,1.72419048 C2.80947619,1.72419048 2.83614286,0.788 3.3942381,0.788 M3.169,2.38085714 L4.93757143,2.38085714 C5.30233333,2.38085714 5.53519048,1.98752381 5.3537619,1.67085714 C4.91471429,0.906095238 4.19566667,-9.52380954e-05 3.15757143,-9.52380954e-05 C1.48804762,-9.52380954e-05 1.50566667,2.38085714 3.169,2.38085714 M7.89185714,1.72419048 L6.919,1.72419048 C7.27090476,1.19038095 7.6042381,0.788 8.0342381,0.788 C8.59233333,0.788 8.619,1.72419048 7.89185714,1.72419048 M8.27090476,-9.52380954e-05 C7.23328571,-9.52380954e-05 6.5137619,0.906095238 6.07471429,1.67085714 C5.89328571,1.98752381 6.12614286,2.38085714 6.49090476,2.38085714 L8.25947619,2.38085714 C9.92280952,2.38085714 9.94042857,-9.52380954e-05 8.27090476,-9.52380954e-05 M6.19042857,3.3332381 L6.19042857,4.28561905 C6.19042857,4.54847619 6.40328571,4.76180952 6.66661905,4.76180952 L10.9523333,4.76180952 C11.2156667,4.76180952 11.4285238,4.54847619 11.4285238,4.28561905 L11.4285238,3.3332381 C11.4285238,3.07038095 11.2156667,2.85704762 10.9523333,2.85704762 L6.66661905,2.85704762 C6.40328571,2.85704762 6.19042857,3.07038095 6.19042857,3.3332381 M6.66661905,11.4284762 L9.99995238,11.4284762 C10.2632857,11.4284762 10.4761429,11.215619 10.4761429,10.9522857 L10.4761429,6.19038095 C10.4761429,5.92752381 10.2632857,5.71419048 9.99995238,5.71419048 L6.66661905,5.71419048 C6.40328571,5.71419048 6.19042857,5.92752381 6.19042857,6.19038095 L6.19042857,10.9522857 C6.19042857,11.215619 6.40328571,11.4284762 6.66661905,11.4284762 M4.76185714,2.85704762 L0.476142857,2.85704762 C0.213285714,2.85704762 -4.76190477e-05,3.07038095 -4.76190477e-05,3.3332381 L-4.76190477e-05,4.28561905 C-4.76190477e-05,4.54847619 0.213285714,4.76180952 0.476142857,4.76180952 L4.76185714,4.76180952 C5.02471429,4.76180952 5.23804762,4.54847619 5.23804762,4.28561905 L5.23804762,3.3332381 C5.23804762,3.07038095 5.02471429,2.85704762 4.76185714,2.85704762 M4.76185714,11.4284762 L1.42852381,11.4284762 C1.16566667,11.4284762 0.952333333,11.215619 0.952333333,10.9522857 L0.952333333,6.19038095 C0.952333333,5.92752381 1.16566667,5.71419048 1.42852381,5.71419048 L4.76185714,5.71419048 C5.02471429,5.71419048 5.23804762,5.92752381 5.23804762,6.19038095 L5.23804762,10.9522857 C5.23804762,11.215619 5.02471429,11.4284762 4.76185714,11.4284762" id="Fill-1" fill="#FFFFFF" mask="url(#mask-4)"></path>
                </g>
            </g>
        </g>
    </g>
</svg>